<?xml version="1.0" encoding="UTF-8" standalone="no"?>
<!DOCTYPE svg PUBLIC "-//W3C//DTD SVG 1.1//EN" "http://www.w3.org/Graphics/SVG/1.1/DTD/svg11.dtd">
<svg version="1.1" xmlns="http://www.w3.org/2000/svg" xmlns:xlink="http://www.w3.org/1999/xlink" preserveAspectRatio="xMidYMid meet" viewBox="0 0 640 640" width="1200" height="1200"><defs><path d="M55.05 451.65C35.18 366.75 36.73 278.24 59.56 194.09C62.47 183.37 58.45 198.18 66.87 167.15C71.63 149.62 72.19 131.22 68.51 113.44C67.28 107.5 67.16 106.91 65.42 98.51C64.1 92.16 70.35 86.89 76.39 89.24C83.68 92.09 88.86 94.12 95.48 96.7C106.66 101.07 119.07 101.07 130.24 96.69C171.56 80.52 165.17 83.02 178.25 77.9C280.36 37.93 393.64 37.16 496.28 75.76C504.82 78.97 476.14 68.18 510.96 81.28C529.34 88.19 549.18 90.32 568.61 87.45C573.63 86.72 570.82 87.13 578.78 85.96C585.62 84.95 591.13 91.5 588.97 98.07C586.05 106.93 585.46 108.71 583.4 114.95C577.49 132.89 576.52 152.1 580.6 170.55C588.23 205.12 588.54 206.53 592.08 222.58C609.61 301.97 608.01 384.39 587.43 463.04C584.81 473.02 590.22 452.36 583.09 479.61C577.34 501.56 576.34 524.49 580.16 546.86C580.72 550.17 579.13 540.82 580.32 547.79C581.91 557.14 577.4 566.47 569.08 571.03C554.64 578.95 544.61 574.18 538.99 556.73C538.28 554.54 532.38 556.23 521.27 561.81C404.91 620.24 268.09 621.69 150.5 565.76C144.1 562.71 184.54 581.95 146.47 563.84C128.92 555.49 108.41 556.2 91.49 565.74C86.69 568.44 87.82 567.8 80.16 572.12C74.5 575.31 67.49 571.22 67.49 564.72C67.49 552.74 67.49 537.26 67.49 526.76C67.49 512.18 65.81 497.65 62.49 483.46C54.95 451.23 57.54 462.28 55.05 451.65Z" id="c6d9g22UKn"></path><mask id="maskcf3IjdFFP" x="-18.79" y="-12.64" width="682.93" height="679.34" maskUnits="userSpaceOnUse"><rect x="-18.79" y="-12.64" width="682.93" height="679.34" fill="white"></rect><use xlink:href="#c6d9g22UKn" opacity="1" fill="black"></use></mask><path d="" id="ag51ysBgB"></path><path d="" id="a27WDicOCW"></path><path d="M172.31 316.8C172.31 402.92 142.62 551.74 128 506.52C113.38 461.31 94.33 427.74 94.33 341.62C94.33 311.36 99.37 253.61 109.44 168.39C110.47 159.67 122 157.26 126.42 164.84C157.01 217.19 172.31 267.85 172.31 316.8Z" id="e1sLtgZgI"></path><clipPath id="clipb3S208HE20"><use xlink:href="#e1sLtgZgI" opacity="1"></use></clipPath></defs><g><g><g><use xlink:href="#c6d9g22UKn" opacity="1" fill="#031812" fill-opacity="0"></use><g mask="url(#maskcf3IjdFFP)"><use xlink:href="#c6d9g22UKn" opacity="1" fill-opacity="0" stroke="#151515" stroke-width="60" stroke-opacity="1"></use></g></g><g><g><use xlink:href="#ag51ysBgB" opacity="1" fill-opacity="0" stroke="#151039" stroke-width="1" stroke-opacity="1"></use></g></g><g><g><use xlink:href="#a27WDicOCW" opacity="1" fill-opacity="0" stroke="#151039" stroke-width="1" stroke-opacity="1"></use></g></g><g><use xlink:href="#e1sLtgZgI" opacity="1" fill="#031812" fill-opacity="0"></use><g clip-path="url(#clipb3S208HE20)"><use xlink:href="#e1sLtgZgI" opacity="1" fill-opacity="0" stroke="#151515" stroke-width="80" stroke-opacity="1"></use></g></g></g></g></svg>