<?xml version="1.0" encoding="UTF-8" standalone="no"?>
<!DOCTYPE svg PUBLIC "-//W3C//DTD SVG 1.1//EN" "http://www.w3.org/Graphics/SVG/1.1/DTD/svg11.dtd">
<svg version="1.1" xmlns="http://www.w3.org/2000/svg" xmlns:xlink="http://www.w3.org/1999/xlink" preserveAspectRatio="xMidYMid meet" viewBox="0 0 640 640" width="640" height="640"><defs><path d="M53.05 402.73C31.71 337.94 33.34 267.78 57.68 204.06C60.02 197.92 53.27 215.6 61.57 193.85C66.65 180.56 67.24 165.98 63.26 152.32C62.14 148.47 62.68 150.3 61 144.54C59.54 139.53 64.14 134.86 69.17 136.26C76.97 138.42 86.63 141.11 93.88 143.12C103.22 145.71 113.08 145.71 122.42 143.11C164.36 131.44 183.14 126.22 201.89 121C287.17 97.28 377.24 96.82 462.76 119.67C477.06 123.49 475.48 123.07 511.31 132.65C526.49 136.7 542.29 137.94 557.92 136.31C564.13 135.66 568.52 135.2 577.08 134.3C582.32 133.76 586.15 139.13 583.94 143.9C581.08 150.06 581.23 149.74 579.3 153.91C573.09 167.29 572.08 182.5 576.46 196.59C583.97 220.78 581.85 213.96 584.9 223.77C603.8 284.58 602.11 349.93 580.1 409.69C578.01 415.36 586.09 393.41 579.11 412.38C572.95 429.1 571.88 447.28 576.03 464.61C576.48 466.47 574.2 456.95 575.33 461.68C577.04 468.79 573.48 476.11 566.84 479.17C551.38 486.28 540.53 482.94 534.28 469.16C532.24 464.66 515.86 468.29 485.13 480.04C386.25 517.87 277.26 520.02 176.96 486.11C164.32 481.84 176.09 485.82 137.07 472.63C122.03 467.54 105.67 467.99 90.94 473.89C85.31 476.15 81.55 477.65 73.5 480.88C68.36 482.93 62.78 479.15 62.78 473.63C62.78 465.36 62.78 456.79 62.78 449.69C62.78 438.15 60.94 426.69 57.33 415.73C49.88 393.1 54.99 408.64 53.05 402.73Z" id="btz8tG5ga"></path><mask id="maskbxQjLNf0J" x="-21.84" y="42.87" width="679.78" height="527.2" maskUnits="userSpaceOnUse"><rect x="-21.84" y="42.87" width="679.78" height="527.2" fill="white"></rect><use xlink:href="#btz8tG5ga" opacity="1" fill="black"></use></mask><path d="" id="cm6ti5gXI"></path><path d="" id="bfURWZVdo"></path><path d="M114.76 304.54C114.76 354.35 98 440.42 89.74 414.27C81.48 388.12 70.72 368.71 70.72 318.9C70.72 301.58 70.91 266.17 83.86 217.91C85.41 212.16 88.28 206.52 92.47 200.99C94.44 198.39 98.54 199.18 99.41 202.33C109.65 239.65 114.76 273.72 114.76 304.54Z" id="dmzWYhKTk"></path><clipPath id="clipb3NmNul3m4"><use xlink:href="#dmzWYhKTk" opacity="1"></use></clipPath></defs><g><g><g><use xlink:href="#btz8tG5ga" opacity="1" fill="#031812" fill-opacity="0"></use><g mask="url(#maskbxQjLNf0J)"><use xlink:href="#btz8tG5ga" opacity="1" fill-opacity="0" stroke="#151515" stroke-width="60" stroke-opacity="1"></use></g></g><g><g><use xlink:href="#cm6ti5gXI" opacity="1" fill-opacity="0" stroke="#151039" stroke-width="1" stroke-opacity="1"></use></g></g><g><g><use xlink:href="#bfURWZVdo" opacity="1" fill-opacity="0" stroke="#151039" stroke-width="1" stroke-opacity="1"></use></g></g><g><use xlink:href="#dmzWYhKTk" opacity="1" fill="#031812" fill-opacity="0"></use><g clip-path="url(#clipb3NmNul3m4)"><use xlink:href="#dmzWYhKTk" opacity="1" fill-opacity="0" stroke="#151515" stroke-width="80" stroke-opacity="1"></use></g></g></g></g></svg>